<svg width="128" height="128" xmlns="http://www.w3.org/2000/svg">
 <title/>

 <g>
  <title>background</title>
  <rect fill="none" id="canvas_background" height="402" width="582" y="-1" x="-1"/>
 </g>
 <g>
  <title>Layer 1</title>
  <path fill="#ffffff" id="svg_1" d="m96.48,47.24l-13,0l1.67,-14a2,2 0 0 0 -4,-0.48l-1.67,14.48l-25.48,0l1.66,-14a2,2 0 1 0 -4,-0.48l-1.66,14.48l-15.52,0a2,2 0 0 0 0,4l15,0l-3,25.52l-14.96,0a2,2 0 1 0 0,4l14.48,0l-1.67,14a2,2 0 0 0 1.72,2.24l0.24,0a2,2 0 0 0 2,-1.76l1.71,-14.48l25.49,0l-1.67,14a2,2 0 0 0 1.75,2.24l0.24,0a2,2 0 0 0 2,-1.76l1.72,-14.48l14,0a2,2 0 0 0 0,-4l-13.53,0l3,-25.52l13.48,0a2,2 0 0 0 0,-4zm-20.48,29.52l-25.53,0l3,-25.52l25.53,0l-3,25.52z"/>
  <path fill="#ffffff" id="svg_2" d="m64,0a64,64 0 1 0 64,64a64.07,64.07 0 0 0 -64,-64zm0,124a60,60 0 1 1 60,-60a60.07,60.07 0 0 1 -60,60z"/>
 </g>
</svg>