<svg id="Capa_1" enable-background="new 0 0 501.86 501.86" height="512" viewBox="0 0 501.86 501.86" width="512" xmlns="http://www.w3.org/2000/svg"><path d="m254.36 138.123v-56.185c0-15.95-13.05-29-29-29h-188.86c-15.95 0-29 13.05-29 29v56.185z" fill="#fac600"/><path d="m465.36 448.922h-428.86c-15.95 0-29-13.05-29-29v-300.009c0-15.95 13.05-29 29-29h428.86c15.95 0 29 13.05 29 29v300.009c0 15.95-13.05 29-29 29z" fill="#fee45a"/><path d="m465.36 90.913h-30c15.95 0 29 13.05 29 29v300.009c0 15.95-13.05 29-29 29h30c15.95 0 29-13.05 29-29v-300.009c0-15.95-13.05-29-29-29z" fill="#fed402"/><path d="m7.5 398.387v21.535c0 15.95 13.05 29 29 29h428.86c15.95 0 29-13.05 29-29v-21.535z" fill="#fac600"/><path d="m113.584 305.567c20.783 0 38.424-13.407 44.778-32.039h-47.438l-7.307-15.273 7.307-14.659h47.646c-6.172-18.952-23.974-32.653-44.986-32.653-19.716 0-36.609 12.063-43.717 29.209h-62.367v35.385h62.042c6.904 17.578 24.013 30.03 44.042 30.03z" fill="#7ca1b1"/><path d="m388.276 305.567c-20.783 0-38.424-13.407-44.778-32.039h47.438l7.307-15.273-7.307-14.659h-47.646c6.172-18.952 23.974-32.653 44.986-32.653 19.716 0 36.609 12.063 43.717 29.209h62.367v35.385h-62.042c-6.904 17.578-24.013 30.03-44.042 30.03z" fill="#d9e7ec"/><path d="m464.36 240.151h30v35.385h-30z" fill="#c5d3dd"/><path d="m302.795 275.665-8.317-2.877c3.329-9.957 3.034-20.268-.157-29.503l8.311-2.868c2.368-.817 3.563-3.48 2.568-5.779-6.048-13.971-17.074-24.918-31.079-30.856-2.297-.974-4.941.225-5.752 2.585l-2.857 8.313c-9.956-3.335-20.266-3.046-29.503.14l-2.865-8.318c-.811-2.356-3.455-3.566-5.743-2.579-13.996 6.04-24.964 17.07-30.913 31.09-.977 2.303.232 4.954 2.601 5.758l8.306 2.817c-3.35 9.963-3.068 20.283.115 29.529l-8.319 2.86c-2.366.814-3.563 3.469-2.577 5.769 6.014 14.018 16.949 25.228 30.918 31.235 2.336 1.004 5.032-.162 5.842-2.572l2.825-8.4.028-.083.057-.169c9.954 3.347 20.264 3.068 29.504-.107l2.855 8.321c.809 2.357 3.451 3.57 5.74 2.586 14.034-6.037 25.029-17.087 30.985-31.141.976-2.296-.218-4.937-2.573-5.751zm-57.498-.733c-9.211-3.104-14.18-13.122-11.077-22.334 3.104-9.211 13.122-14.18 22.334-11.077 9.211 3.104 14.18 13.122 11.077 22.334-3.104 9.211-13.123 14.18-22.334 11.077z" fill="#fd6930"/><path d="m302.795 275.665-8.317-2.876c3.329-9.957 3.034-20.268-.157-29.503l8.311-2.868c2.368-.817 3.563-3.48 2.568-5.779-6.048-13.971-17.074-24.918-31.079-30.856-2.297-.974-4.941.225-5.752 2.585l-2.857 8.313c-2.093-.701-4.202-1.233-6.313-1.62 6.856 5.798 12.343 13.13 16.001 21.578.995 2.299-.199 4.961-2.568 5.779l-8.311 2.868c.632 1.829 1.145 3.701 1.544 5.603 2.697 4.323 3.515 9.773 1.765 14.967-.441 1.308-1.034 2.52-1.732 3.646-.366 1.768-.833 3.533-1.42 5.288l8.317 2.876c2.355.815 3.549 3.455 2.577 5.75-3.644 8.599-9.182 16.065-16.141 21.955 2.232-.415 4.425-.987 6.56-1.72l2.856 8.321c.809 2.357 3.451 3.57 5.74 2.586 14.034-6.037 25.029-17.087 30.985-31.141.972-2.297-.222-4.938-2.577-5.752z" fill="#fd5426"/><path d="m465.36 83.413h-116.199c-4.143 0-7.5 3.358-7.5 7.5s3.357 7.5 7.5 7.5h116.199c11.855 0 21.5 9.645 21.5 21.5v112.738h-50.111c-9.432-17.898-27.945-29.208-48.473-29.208-23.803 0-44.748 15.203-52.117 37.831-.744 2.284-.35 4.786 1.062 6.729s3.668 3.094 6.069 3.094h43.005l3.603 7.227-3.687 7.706h-42.713c-2.42 0-4.691 1.167-6.1 3.136s-1.78 4.495-.999 6.785c7.572 22.201 28.42 37.118 51.877 37.118 20.942 0 39.614-11.629 48.895-30.031h49.689v107.851h-309.214c-4.142 0-7.5 3.358-7.5 7.5s3.358 7.5 7.5 7.5h309.214v14.035c0 11.855-9.645 21.5-21.5 21.5h-428.86c-11.855 0-21.5-9.645-21.5-21.5v-14.035h132.646c4.142 0 7.5-3.358 7.5-7.5s-3.358-7.5-7.5-7.5h-132.646v-107.853h49.689c9.28 18.403 27.951 30.031 48.895 30.031 23.458 0 44.305-14.917 51.876-37.118.781-2.291.409-4.817-.999-6.785s-3.68-3.136-6.1-3.136h-42.712l-3.687-7.706 3.602-7.227h43.005c2.402 0 4.658-1.15 6.069-3.094 1.411-1.943 1.806-4.445 1.062-6.729-7.369-22.628-28.313-37.831-52.117-37.831-20.527 0-39.04 11.311-48.473 29.208h-50.11v-94.528-18.21c0-11.855 9.645-21.5 21.5-21.5h282.661c4.143 0 7.5-3.358 7.5-7.5s-3.357-7.5-7.5-7.5h-57.301v-1.475c0-20.126-16.374-36.5-36.5-36.5h-188.86c-20.126 0-36.5 16.374-36.5 36.5v337.984c0 20.126 16.374 36.5 36.5 36.5h428.86c20.126 0 36.5-16.374 36.5-36.5v-300.007c0-20.126-16.374-36.5-36.5-36.5zm-395.493 164.238c3.033 0 5.767-1.826 6.928-4.627 6.191-14.933 20.631-24.581 36.789-24.581 13.562 0 25.845 6.793 33.095 17.653h-35.755c-2.844 0-5.443 1.609-6.712 4.154l-7.307 14.659c-1.031 2.069-1.051 4.498-.053 6.583l7.307 15.274c1.246 2.605 3.877 4.263 6.766 4.263h35.319c-7.314 10.491-19.413 17.039-32.659 17.039-16.484 0-31.032-9.92-37.061-25.272-1.127-2.871-3.897-4.759-6.981-4.759h-54.543v-20.385h54.867zm-33.367-187.213h188.86c11.855 0 21.5 9.645 21.5 21.5v1.475h-210.36c-8.034 0-15.465 2.615-21.5 7.03v-8.505c0-11.855 9.645-21.5 21.5-21.5zm395.818 207.598c-3.084 0-5.854 1.888-6.98 4.758-6.03 15.353-20.577 25.273-37.062 25.273-13.245 0-25.345-6.547-32.659-17.039h35.319c2.888 0 5.52-1.658 6.766-4.263l7.308-15.274c.998-2.085.978-4.514-.054-6.583l-7.308-14.659c-1.269-2.545-3.868-4.154-6.712-4.154h-35.755c7.25-10.86 19.533-17.653 33.095-17.653 16.158 0 30.599 9.648 36.788 24.581 1.162 2.801 3.896 4.628 6.929 4.628h54.867v20.385z"/><path d="m190.124 275.156c-1.321 2.982-1.344 6.408-.06 9.401 6.809 15.87 19.116 28.29 34.654 34.972 1.496.643 3.096.964 4.695.964 1.649 0 3.297-.342 4.826-1.025 2.994-1.337 5.311-3.886 6.356-6.995l.667-1.985c6.498 1.212 13.112 1.188 19.607-.071l.572 1.667c1.064 3.1 3.395 5.639 6.391 6.966 2.977 1.317 6.391 1.338 9.371.056 15.725-6.764 28.06-19.162 34.731-34.908 1.266-2.985 1.234-6.399-.085-9.367-1.323-2.978-3.849-5.297-6.928-6.362 0 0 0 0-.001 0l-1.733-.6c1.215-6.521 1.184-13.161-.092-19.676l1.658-.572c3.097-1.068 5.631-3.401 6.953-6.4 1.317-2.989 1.33-6.418.035-9.411-6.776-15.652-19.149-27.936-34.84-34.589-2.989-1.268-6.406-1.234-9.377.09-2.98 1.329-5.299 3.861-6.358 6.946l-.588 1.71c-6.515-1.215-13.148-1.187-19.659.083l-.573-1.664c-1.067-3.099-3.399-5.636-6.398-6.96-2.978-1.315-6.394-1.332-9.372-.046-15.68 6.767-27.986 19.144-34.651 34.852-1.271 2.997-1.236 6.423.098 9.4 1.339 2.987 3.884 5.303 6.982 6.354l1.662.563c-1.218 6.513-1.193 13.144.074 19.654l-1.665.572c-3.092 1.063-5.626 3.389-6.952 6.381zm37.208-62.498 1.68 4.879c.648 1.881 2.017 3.428 3.806 4.3s3.85.997 5.731.348c8.007-2.761 16.476-2.803 24.49-.118 3.905 1.311 8.138-.778 9.476-4.674l1.685-4.9c9.596 4.853 17.351 12.549 22.282 22.115l-4.878 1.683c-1.881.649-3.427 2.019-4.298 3.808-.87 1.789-.994 3.851-.345 5.731 2.767 8.007 2.813 16.476.132 24.49-1.304 3.9.775 8.123 4.662 9.466l4.913 1.699c-4.865 9.633-12.593 17.408-22.201 22.339l-1.675-4.88c-.646-1.882-2.013-3.43-3.8-4.304-1.789-.874-3.85-1.002-5.731-.354-8.011 2.752-16.48 2.783-24.491.089-3.923-1.319-8.175.79-9.498 4.712l-1.746 5.191c-9.517-4.892-17.244-12.717-22.2-22.479l4.896-1.684c1.881-.646 3.429-2.015 4.302-3.803s.999-3.849.352-5.73c-2.76-8.019-2.794-16.495-.097-24.512 1.318-3.919-.785-8.166-4.7-9.493l-4.873-1.652c4.857-9.593 12.556-17.341 22.126-22.267z"/><path d="m242.938 281.935c2.64.889 5.325 1.312 7.967 1.312 10.446 0 20.213-6.599 23.729-17.032 4.404-13.072-2.648-27.291-15.721-31.696-6.324-2.131-13.108-1.668-19.1 1.303s-10.465 8.092-12.596 14.417-1.668 13.108 1.303 19.1c2.972 5.992 8.092 10.465 14.418 12.596zm-1.506-26.906c.852-2.529 2.644-4.577 5.046-5.769s5.12-1.377 7.645-.526c5.235 1.764 8.06 7.458 6.296 12.692-1.764 5.235-7.461 8.057-12.692 6.294-2.528-.852-4.577-2.644-5.768-5.046-1.192-2.401-1.379-5.116-.527-7.645z"/></svg>